<?xml version="1.0" encoding="UTF-8"?>
<svg width="64px" height="64px" viewBox="0 0 64 64" version="1.1" xmlns="http://www.w3.org/2000/svg">
    <g stroke="none" stroke-width="1" fill="none" fill-rule="evenodd">
        <path d="M40,12 C42.2,12 44,13.8 44,16 L44,20 L48,20 C50.2,20 52,21.8 52,24 L52,48 C52,50.2 50.2,52 48,52 L16,52 C13.8,52 12,50.2 12,48 L12,24 C12,21.8 13.8,20 16,20 L20,20 L20,16 C20,13.8 21.8,12 24,12 L40,12 Z M48,24 L16,24 L16,48 L48,48 L48,24 Z M32,32 L42,32 C43.1,32 44,32.9 44,34 C44,35.1 43.1,36 42,36 L32,36 L32,38 C32,39.4 30.4,40.1 29.4,39.1 L24.4,34.1 C23.8,33.5 23.8,32.5 24.4,31.9 L29.4,26.9 C30.4,25.9 32,26.6 32,28 L32,32 Z M40,16 L24,16 L24,20 L40,20 L40,16 Z" fill="#FFB830"></path>
    </g>
</svg>