<?xml version="1.0" encoding="UTF-8"?>
<svg width="64px" height="64px" viewBox="0 0 64 64" version="1.1" xmlns="http://www.w3.org/2000/svg">
    <g stroke="none" stroke-width="1" fill="none" fill-rule="evenodd">
        <path d="M32,4 C47.464,4 60,16.536 60,32 C60,47.464 47.464,60 32,60 C16.536,60 4,47.464 4,32 C4,16.536 16.536,4 32,4 Z M32,8 C18.745,8 8,18.745 8,32 C8,45.255 18.745,56 32,56 C45.255,56 56,45.255 56,32 C56,18.745 45.255,8 32,8 Z M32,20 C38.627,20 44,25.373 44,32 C44,38.627 38.627,44 32,44 C25.373,44 20,38.627 20,32 C20,25.373 25.373,20 32,20 Z M32,24 C27.582,24 24,27.582 24,32 C24,36.418 27.582,40 32,40 C36.418,40 40,36.418 40,32 C40,27.582 36.418,24 32,24 Z" fill="#9333EA"></path>
    </g>
</svg>