<?xml version="1.0" encoding="UTF-8"?>
<svg width="64px" height="64px" viewBox="0 0 64 64" version="1.1" xmlns="http://www.w3.org/2000/svg">
    <g stroke="none" stroke-width="1" fill="none" fill-rule="evenodd">
        <path d="M32,4 C47.464,4 60,16.536 60,32 C60,47.464 47.464,60 32,60 C16.536,60 4,47.464 4,32 C4,16.536 16.536,4 32,4 Z M32,8 C18.745,8 8,18.745 8,32 C8,45.255 18.745,56 32,56 C45.255,56 56,45.255 56,32 C56,18.745 45.255,8 32,8 Z M32,44 C33.105,44 34,44.895 34,46 C34,47.105 33.105,48 32,48 C30.895,48 30,47.105 30,46 C30,44.895 30.895,44 32,44 Z M32,16 C37.523,16 42,20.477 42,26 C42,29.089 40.386,31.825 38,33.465 L38,36 C38,37.105 37.105,38 36,38 L28,38 C26.895,38 26,37.105 26,36 L26,33.465 C23.614,31.825 22,29.089 22,26 C22,20.477 26.477,16 32,16 Z M32,20 C28.691,20 26,22.691 26,26 C26,27.696 26.848,29.175 28.141,30.141 C28.369,30.313 28.647,30.4 28.929,30.4 C29.211,30.4 29.488,30.313 29.717,30.141 C30.151,29.815 30.225,29.192 29.889,28.765 C29.051,28.098 28.571,27.113 28.571,26 C28.571,24.144 30.108,22.571 32,22.571 C33.892,22.571 35.429,24.144 35.429,26 C35.429,27.113 34.949,28.098 34.111,28.765 C33.775,29.192 33.849,29.815 34.283,30.141 C34.512,30.313 34.789,30.4 35.071,30.4 C35.353,30.4 35.631,30.313 35.859,30.141 C37.152,29.175 38,27.696 38,26 C38,22.691 35.309,20 32,20 Z" fill="#9333EA"></path>
    </g>
</svg>