<?xml version="1.0" encoding="UTF-8"?>
<svg width="80px" height="80px" viewBox="0 0 80 80" version="1.1" xmlns="http://www.w3.org/2000/svg">
    <g stroke="none" stroke-width="1" fill="none" fill-rule="evenodd">
        <path d="M40,14 C33.712,14 28.591,19.121 28.591,25.409 C28.591,28.78 30.121,31.78 32.5,33.75 C29.288,36.886 27.349,39.432 26.229,42.207 C25.11,44.982 24.833,47.971 24.5,52.09 C24.5,52.09 35.682,55.409 40,55.409 C44.318,55.409 55.5,52.09 55.5,52.09 C55.167,47.971 54.89,44.982 53.771,42.207 C52.651,39.432 50.712,36.886 47.5,33.75 C49.879,31.78 51.409,28.78 51.409,25.409 C51.409,19.121 46.288,14 40,14 Z M40,16.636 C44.833,16.636 48.773,20.576 48.773,25.409 C48.773,30.242 44.833,34.182 40,34.182 C35.167,34.182 31.227,30.242 31.227,25.409 C31.227,20.576 35.167,16.636 40,16.636 Z M40,21.909 C38.118,21.909 36.591,23.436 36.591,25.318 C36.591,27.2 38.118,28.727 40,28.727 C41.882,28.727 43.409,27.2 43.409,25.318 C43.409,23.436 41.882,21.909 40,21.909 Z M33.591,36.909 C35.538,38.144 37.706,38.864 40,38.864 C42.294,38.864 44.462,38.144 46.409,36.909 C49.136,39.576 50.645,41.681 51.5,43.773 C52.439,46.09 52.728,48.614 53.044,52.273 C50.803,53.02 44.561,54.5 40,54.5 C35.439,54.5 29.197,53.02 26.956,52.273 C27.272,48.614 27.561,46.09 28.5,43.773 C29.356,41.681 30.864,39.576 33.591,36.909 Z M34.864,42.409 C33.47,42.409 32.33,43.197 31.727,44.318 C31.125,45.439 31.044,46.795 31.273,48.045 C31.73,50.545 33.273,52.5 34.864,52.5 C36.455,52.5 37.997,50.545 38.455,48.045 C38.683,46.795 38.602,45.439 38,44.318 C37.398,43.197 36.258,42.409 34.864,42.409 Z M45.136,42.409 C43.742,42.409 42.602,43.197 42,44.318 C41.398,45.439 41.317,46.795 41.545,48.045 C42.003,50.545 43.545,52.5 45.136,52.5 C46.727,52.5 48.27,50.545 48.727,48.045 C48.956,46.795 48.875,45.439 48.273,44.318 C47.67,43.197 46.53,42.409 45.136,42.409 Z M34.864,45.136 C35.061,45.136 35.239,45.227 35.409,45.591 C35.58,45.955 35.722,46.629 35.591,47.318 C35.33,48.697 34.682,49.773 34.864,49.773 C35.045,49.773 35.694,48.697 35.933,47.318 C36.064,46.629 36.206,45.955 36.376,45.591 C36.547,45.227 36.724,45.136 36.922,45.136 C37.12,45.136 37.297,45.227 37.467,45.591 C37.637,45.955 37.779,46.629 37.649,47.318 C37.41,48.697 36.762,49.773 36.944,49.773 C37.125,49.773 37.774,48.697 38.013,47.318 C38.144,46.629 38.285,45.955 38.456,45.591 C38.626,45.227 38.803,45.136 39,45.136 C37.121,47.015 34.864,47.015 34.864,45.136 Z M45.136,45.136 C45.333,45.136 45.511,45.227 45.682,45.591 C45.852,45.955 45.994,46.629 45.863,47.318 C45.603,48.697 44.955,49.773 45.136,49.773 C45.318,49.773 45.966,48.697 46.205,47.318 C46.336,46.629 46.478,45.955 46.648,45.591 C46.819,45.227 46.996,45.136 47.193,45.136 C47.391,45.136 47.568,45.227 47.739,45.591 C47.909,45.955 48.051,46.629 47.92,47.318 C47.682,48.697 47.033,49.773 47.215,49.773 C47.397,49.773 48.045,48.697 48.284,47.318 C48.415,46.629 48.557,45.955 48.727,45.591 C48.898,45.227 49.075,45.136 49.273,45.136 C47.394,47.015 45.136,47.015 45.136,45.136 Z" fill="#FFB830"></path>
    </g>
</svg>