<?xml version="1.0" encoding="UTF-8"?>
<svg width="64px" height="64px" viewBox="0 0 64 64" version="1.1" xmlns="http://www.w3.org/2000/svg">
    <g stroke="none" stroke-width="1" fill="none" fill-rule="evenodd">
        <path d="M32,4 C40.837,4 48,11.163 48,20 L48,24 L52,24 C54.209,24 56,25.791 56,28 L56,52 C56,54.209 54.209,56 52,56 L12,56 C9.791,56 8,54.209 8,52 L8,28 C8,25.791 9.791,24 12,24 L16,24 L16,20 C16,11.163 23.163,4 32,4 Z M52,28 L12,28 L12,52 L52,52 L52,28 Z M32,8 C25.373,8 20,13.373 20,20 L20,24 L44,24 L44,20 C44,13.373 38.627,8 32,8 Z M32,36 C34.209,36 36,37.791 36,40 C36,41.597 35.12,42.985 33.8,43.6 L36,48 L28,48 L30.2,43.6 C28.88,42.985 28,41.597 28,40 C28,37.791 29.791,36 32,36 Z" fill="#FFB830"></path>
    </g>
</svg>