<?xml version="1.0" encoding="UTF-8"?>
<svg width="64px" height="64px" viewBox="0 0 64 64" version="1.1" xmlns="http://www.w3.org/2000/svg">
    <g stroke="none" stroke-width="1" fill="none" fill-rule="evenodd">
        <path d="M32,8 L53.856,20 L53.856,44 L32,56 L10.144,44 L10.144,20 L32,8 Z M32,12.944 L14.144,22.472 L14.144,41.528 L32,51.056 L49.856,41.528 L49.856,22.472 L32,12.944 Z M32,16.944 L46.464,25.208 L46.464,38.792 L32,47.056 L17.536,38.792 L17.536,25.208 L32,16.944 Z M32,34 C34.209,34 36,32.209 36,30 C36,27.791 34.209,26 32,26 C29.791,26 28,27.791 28,30 C28,32.209 29.791,34 32,34 Z" fill="#05B169"></path>
    </g>
</svg>