<?xml version="1.0" encoding="UTF-8"?>
<svg width="64px" height="64px" viewBox="0 0 64 64" version="1.1" xmlns="http://www.w3.org/2000/svg">
    <g stroke="none" stroke-width="1" fill="none" fill-rule="evenodd">
        <path d="M32,4 C47.464,4 60,16.536 60,32 C60,47.464 47.464,60 32,60 C16.536,60 4,47.464 4,32 C4,16.536 16.536,4 32,4 Z M32,8 C18.745,8 8,18.745 8,32 C8,45.255 18.745,56 32,56 C45.255,56 56,45.255 56,32 C56,18.745 45.255,8 32,8 Z M44.728,19.272 C45.5,20.045 45.5,21.295 44.728,22.067 L33.414,33.38 C32.641,34.153 31.391,34.153 30.619,33.38 C29.847,32.608 29.847,31.358 30.619,30.586 L41.933,19.272 C42.705,18.5 43.955,18.5 44.728,19.272 Z M32,18 C33.105,18 34,18.895 34,20 L34,28 C34,29.105 33.105,30 32,30 C30.895,30 30,29.105 30,28 L30,20 C30,18.895 30.895,18 32,18 Z M44,32 C45.105,32 46,32.895 46,34 C46,35.105 45.105,36 44,36 L36,36 C34.895,36 34,35.105 34,34 C34,32.895 34.895,32 36,32 L44,32 Z" fill="#05B169"></path>
    </g>
</svg>