<?xml version="1.0" encoding="UTF-8"?>
<svg width="80px" height="80px" viewBox="0 0 80 80" version="1.1" xmlns="http://www.w3.org/2000/svg">
    <g stroke="none" stroke-width="1" fill="none" fill-rule="evenodd">
        <path d="M56.06,40.28 C56.02,34.33 61.15,31.67 61.39,31.53 C58.47,27.25 53.95,26.68 52.33,26.63 C48.48,26.22 44.74,28.99 42.78,28.99 C40.79,28.99 37.78,26.67 34.56,26.73 C30.35,26.8 26.43,29.15 24.28,32.86 C19.84,40.47 23.15,51.89 27.38,58.07 C29.49,61.09 31.98,64.49 35.2,64.35 C38.34,64.19 39.56,62.25 43.28,62.25 C46.96,62.25 48.11,64.35 51.4,64.27 C54.77,64.19 56.97,61.19 59,58.14 C61.41,54.71 62.36,51.33 62.4,51.17 C62.33,51.14 56.11,48.77 56.06,40.28 Z" fill="#3461FF"></path>
        <path d="M49.97,21.88 C51.68,19.77 52.81,16.92 52.48,14 C50.04,14.1 47.01,15.7 45.23,17.75 C43.65,19.53 42.29,22.48 42.66,25.29 C45.38,25.49 48.2,23.93 49.97,21.88 Z" fill="#3461FF"></path>
    </g>
</svg>