<?xml version="1.0" encoding="UTF-8"?>
<svg width="64px" height="64px" viewBox="0 0 64 64" version="1.1" xmlns="http://www.w3.org/2000/svg">
    <g stroke="none" stroke-width="1" fill="none" fill-rule="evenodd">
        <path d="M32,8 C38.6,8 44,13.4 44,20 L44,24 L48,24 C50.2,24 52,25.8 52,28 L52,52 C52,54.2 50.2,56 48,56 L16,56 C13.8,56 12,54.2 12,52 L12,28 C12,25.8 13.8,24 16,24 L20,24 L20,20 C20,13.4 25.4,8 32,8 Z M48,28 L16,28 L16,52 L48,52 L48,28 Z M32,36 C34.2,36 36,37.8 36,40 C36,41.4 35.2,42.6 34,43.2 L34,48 L30,48 L30,43.2 C28.8,42.6 28,41.4 28,40 C28,37.8 29.8,36 32,36 Z M32,12 C27.6,12 24,15.6 24,20 L24,24 L40,24 L40,20 C40,15.6 36.4,12 32,12 Z" fill="#3461FF"></path>
    </g>
</svg>