<?xml version="1.0" encoding="UTF-8"?>
<svg width="24px" height="24px" viewBox="0 0 24 24" version="1.1" xmlns="http://www.w3.org/2000/svg">
    <g stroke="none" stroke-width="1" fill="none" fill-rule="evenodd">
        <path d="M12,17 C14.7614,17 17,14.7614 17,12 C17,9.23858 14.7614,7 12,7 C9.23858,7 7,9.23858 7,12 C7,14.7614 9.23858,17 12,17 Z" fill="#FFFFFF"></path>
        <path d="M12,3.5 C12.2761,3.5 12.5,3.27614 12.5,3 L12.5,1.5 C12.5,1.22386 12.2761,1 12,1 C11.7239,1 11.5,1.22386 11.5,1.5 L11.5,3 C11.5,3.27614 11.7239,3.5 12,3.5 Z" fill="#FFFFFF"></path>
        <path d="M12,23 C12.2761,23 12.5,22.7761 12.5,22.5 L12.5,21 C12.5,20.7239 12.2761,20.5 12,20.5 C11.7239,20.5 11.5,20.7239 11.5,21 L11.5,22.5 C11.5,22.7761 11.7239,23 12,23 Z" fill="#FFFFFF"></path>
        <path d="M3.5,12 C3.5,12.2761 3.27614,12.5 3,12.5 L1.5,12.5 C1.22386,12.5 1,12.2761 1,12 C1,11.7239 1.22386,11.5 1.5,11.5 L3,11.5 C3.27614,11.5 3.5,11.7239 3.5,12 Z" fill="#FFFFFF"></path>
        <path d="M23,12 C23,12.2761 22.7761,12.5 22.5,12.5 L21,12.5 C20.7239,12.5 20.5,12.2761 20.5,12 C20.5,11.7239 20.7239,11.5 21,11.5 L22.5,11.5 C22.7761,11.5 23,11.7239 23,12 Z" fill="#FFFFFF"></path>
        <path d="M5.6569,5.6569 C5.85355,5.85355 5.85355,6.16213 5.6569,6.36878 L4.60744,7.41824 C4.41079,7.61489 4.1022,7.61489 3.90555,7.41824 C3.7089,7.22159 3.7089,6.913 3.90555,6.71635 L4.95501,5.6669 C5.15166,5.47025 5.46024,5.47025 5.6569,5.6669 L5.6569,5.6569 Z" fill="#FFFFFF"></path>
        <path d="M20.0945,20.0945 C20.2911,20.2911 20.2911,20.5997 20.0945,20.8064 L19.045,21.8558 C18.8484,22.0525 18.5398,22.0525 18.3331,21.8558 C18.1365,21.6592 18.1365,21.3506 18.3331,21.1439 L19.3826,20.0945 C19.5792,19.8978 19.8878,19.8978 20.0945,20.0945 Z" fill="#FFFFFF"></path>
        <path d="M18.3331,5.6569 C18.5298,5.47025 18.8383,5.47025 19.045,5.6669 L20.0945,6.71635 C20.2911,6.913 20.2911,7.22159 20.0945,7.41824 C19.8978,7.61489 19.5892,7.61489 19.3826,7.41824 L18.3331,6.36878 C18.1365,6.16213 18.1365,5.85355 18.3331,5.6569 Z" fill="#FFFFFF"></path>
        <path d="M3.90555,20.0945 C4.1022,19.8978 4.41079,19.8978 4.60744,20.0945 L5.6569,21.1439 C5.85355,21.3506 5.85355,21.6592 5.6569,21.8558 C5.46024,22.0525 5.15166,22.0525 4.95501,21.8558 L3.90555,20.8064 C3.7089,20.5997 3.7089,20.2911 3.90555,20.0945 Z" fill="#FFFFFF"></path>
    </g>
</svg>